HIERARCHY
ROOT Hips
{
	OFFSET 0.0000 0.0000 0.0000
	CHANNELS 6 Xposition Yposition Zposition Zrotation Xrotation Yrotation
	JOINT Ab
	{
		OFFSET -0.0000 8.1305 -0.0000
		CHANNELS 3 Zrotation Xrotation Yrotation
		JOINT Chest
		{
			OFFSET -0.0000 26.2902 -0.0000
			CHANNELS 3 Zrotation Xrotation Yrotation
			JOINT Neck
			{
				OFFSET -0.0000 26.2902 0.0000
				CHANNELS 3 Zrotation Xrotation Yrotation
				JOINT Head
				{
					OFFSET -0.0000 10.8167 0.0000
					CHANNELS 3 Zrotation Xrotation Yrotation
					End Site
					{
						OFFSET -0.0000 16.7167 0.0000
					}
				}
			}
			JOINT LeftCollar
			{
				OFFSET -0.0000 26.2902 0.0000
				CHANNELS 3 Zrotation Xrotation Yrotation
				JOINT LeftShoulder
				{
					OFFSET 19.6667 -0.0000 0.0000
					CHANNELS 3 Zrotation Xrotation Yrotation
					JOINT LeftElbow
					{
						OFFSET 27.2190 0.0000 0.0000
						CHANNELS 3 Zrotation Xrotation Yrotation
						JOINT LeftWrist
						{
							OFFSET 30.7431 0.0000 0.0000
							CHANNELS 3 Zrotation Xrotation Yrotation
							End Site
							{
								OFFSET 0.0000 -14.7500 0.0000
							}
						}
					}
				}
			}
			JOINT RightCollar
			{
				OFFSET -0.0000 26.2902 0.0000
				CHANNELS 3 Zrotation Xrotation Yrotation
				JOINT RightShoulder
				{
					OFFSET -19.6667 0.0000 0.0000
					CHANNELS 3 Zrotation Xrotation Yrotation
					JOINT RightElbow
					{
						OFFSET -27.2190 0.0000 0.0000
						CHANNELS 3 Zrotation Xrotation Yrotation
						JOINT RightWrist
						{
							OFFSET -30.7431 0.0000 0.0000
							CHANNELS 3 Zrotation Xrotation Yrotation
							End Site
							{
								OFFSET -0.0000 -14.7500 0.0000
							}
						}
					}
				}
			}
		}
	}
	JOINT LeftHip
	{
		OFFSET 11.8000 0.0000 0.0000
		CHANNELS 3 Zrotation Xrotation Yrotation
		JOINT LeftKnee
		{
			OFFSET -0.0000 -39.7832 0.0000
			CHANNELS 3 Zrotation Xrotation Yrotation
			JOINT LeftAnkle
			{
				OFFSET -0.0000 -41.7317 0.0000
				CHANNELS 3 Zrotation Xrotation Yrotation
				End Site
				{
					OFFSET -0.0000 -4.9167 16.7167
				}
			}
		}
	}
	JOINT RightHip
	{
		OFFSET -11.8000 0.0000 0.0000
		CHANNELS 3 Zrotation Xrotation Yrotation
		JOINT RightKnee
		{
			OFFSET -0.0000 -39.7832 0.0000
			CHANNELS 3 Zrotation Xrotation Yrotation
			JOINT RightAnkle
			{
				OFFSET -0.0000 -41.7317 0.0000
				CHANNELS 3 Zrotation Xrotation Yrotation
				End Site
				{
					OFFSET -0.0000 -4.9167 16.7167
				}
			}
		}
	}
}
MOTION
Frames: 15
Frame Time: 0.010000
-7.0733 85.3063 83.2613 358.1143 348.6675 177.3497 358.8715 348.5231 4.3756 2.7945 11.2383 4.2094 351.4731 346.0292 355.9857 4.7198 10.7507 356.5882 337.9918 357.1424 14.7672 314.1210 42.0264 7.1825 359.5250 359.7667 312.2066 91.0418 350.7235 337.1079 27.3670 356.0860 344.0751 30.0876 50.0289 18.9570 330.0172 342.2349 61.3982 260.9303 351.1238 346.9688 352.2886 321.8089 358.2886 356.7768 34.7075 0.5030 2.1036 350.3941 20.1320 0.5487 15.9431 1.5573 5.3699 18.4397 17.8493 358.9249 327.1885 326.0002 
-7.1247 85.1310 81.8232 357.4691 348.6922 177.4580 357.9951 348.2711 4.1290 2.7852 11.5628 4.0485 351.5622 345.7158 355.9968 4.8123 10.6852 356.6087 337.5980 356.9921 15.3189 314.9225 42.7517 5.5393 0.5406 359.2727 311.4421 91.5042 350.7407 338.4225 27.6441 356.0472 344.0826 31.4253 49.3155 17.2543 330.9848 343.4669 59.3596 260.7671 350.7846 348.3602 351.1402 321.8027 356.7657 356.5030 36.1740 0.6150 3.1024 350.3515 21.0723 359.6555 15.3108 0.8676 5.4157 21.4894 18.2439 0.6904 327.2110 327.1210 
-7.1994 85.0139 80.4319 356.6696 348.6748 177.6663 356.9840 348.0230 3.8384 2.7238 11.9775 3.8641 351.7163 345.1445 355.9760 4.7578 10.8247 356.6068 337.3701 356.8652 15.8462 315.4822 43.7058 3.6422 1.8824 358.5487 310.8320 91.9850 350.9291 339.9721 27.9131 356.0104 344.0818 32.8019 48.4974 15.5988 331.8177 344.6010 57.0536 260.8685 350.4558 349.6175 349.7280 321.8384 354.9655 356.0277 37.6659 1.3497 3.9698 350.1340 21.9253 358.5573 14.4305 0.6151 5.7640 24.8114 18.1458 2.3790 327.6879 328.1302 
-7.2695 84.9408 79.0739 355.9434 348.6844 178.0763 356.0811 347.9139 3.5052 2.5791 12.2860 3.6333 351.9401 344.7135 355.9125 4.5932 10.8983 356.5509 337.0871 356.7493 16.1231 316.3429 44.5148 1.6892 3.0240 357.9976 310.1367 92.0896 351.2431 341.3508 28.1954 355.9740 344.2118 34.5497 47.4279 13.4295 332.4931 345.6057 54.6771 261.3786 350.2165 350.2128 348.2974 322.1965 352.9817 355.4374 38.7180 2.4158 4.7590 349.8000 22.1813 357.5481 13.4294 0.6825 6.4069 28.2710 17.3893 4.0849 328.7355 329.1454 
-7.3225 84.9133 77.7439 355.3850 348.7473 178.5952 355.4325 347.9555 3.1747 2.3028 12.5297 3.3911 352.0342 344.3693 355.8546 4.6885 10.9398 356.4991 336.8513 356.6729 16.2090 317.1508 45.1369 359.8287 4.1041 357.4876 309.5039 92.1596 350.9160 342.1322 28.4910 355.9735 344.5976 36.6321 46.1694 10.6838 333.0520 346.4888 52.4056 262.0847 349.8975 350.5347 347.1158 322.8187 351.6702 355.1937 39.5157 2.7703 5.2992 349.3617 22.3831 356.7063 12.1490 359.9954 6.7989 32.2545 17.0431 5.7632 330.2812 330.2472 
-7.3539 84.8964 76.4032 354.9947 349.0013 178.8696 355.2390 348.0962 2.9615 1.7042 12.9597 3.2541 351.9859 343.9630 355.9053 4.9090 11.0651 356.5746 337.0473 356.6811 16.4633 317.4553 46.0239 357.7822 5.6251 356.6098 309.1065 91.2653 350.6348 342.3460 28.8178 356.0562 345.4921 38.8788 44.7671 7.5150 333.6080 347.3437 50.2836 262.2128 350.0189 351.1669 346.4122 323.8025 351.9063 355.8550 40.0348 1.9339 5.6054 348.8980 22.5281 355.8890 10.8486 359.7646 7.5166 36.3034 16.3512 7.4509 332.2835 331.1906 
-7.3889 84.8984 75.0625 354.8592 349.3928 179.2134 355.2676 348.5787 2.8196 1.1990 12.9688 3.1486 351.7604 344.1087 355.8378 5.3451 10.8442 356.4877 337.1725 356.6812 16.4585 317.7645 47.1488 356.2389 7.2387 355.7086 308.1979 91.9462 350.6508 344.4683 29.1724 356.1475 346.0124 40.4450 43.9054 4.8795 333.9186 348.0182 48.0026 262.2445 350.2950 351.4874 345.9042 325.1557 352.1600 356.7900 40.1503 1.3138 5.8117 348.3751 22.1943 355.2082 9.5789 359.4947 8.6058 40.2536 14.5749 8.1825 334.8207 332.4454 
-7.3879 84.9166 73.7010 354.8622 349.8370 179.4274 355.3951 349.0841 2.7445 0.7969 12.9503 3.0888 351.7435 344.1904 355.9114 5.5171 10.9399 356.5430 337.4561 356.7185 16.5496 317.9595 48.4425 354.4354 8.9704 354.7192 307.5538 92.5213 350.9010 346.7348 29.4409 356.2448 346.4275 41.6824 43.2522 2.4844 334.3252 348.7183 46.0161 262.4666 350.6257 351.8287 345.7630 326.5847 352.8941 357.7409 40.1762 0.5928 6.1782 347.7137 21.8378 354.6194 8.2935 359.9732 10.4642 44.0755 12.8546 7.5444 337.5432 332.5211 
-7.3686 84.9666 72.3642 354.9188 350.2757 179.5931 355.4345 349.7061 2.7214 0.6410 12.6894 3.0594 351.8799 344.3548 356.0118 5.3679 11.1681 356.6154 337.5846 356.7159 16.5605 318.3423 49.5596 352.7822 10.4924 353.9094 306.6989 93.3223 351.4535 349.0469 29.6156 356.3465 346.8096 42.8780 42.3847 359.9788 334.8274 349.4024 44.3202 262.9860 350.7171 352.3787 345.8482 328.0351 353.5146 358.2709 40.0963 0.0343 6.4373 347.0907 21.6243 354.1603 6.8609 0.2498 12.2236 47.9277 11.6894 6.4632 339.8149 332.0062 
-7.3478 85.0578 71.0667 354.9722 350.5345 179.7218 355.4870 350.1311 2.6302 0.4573 12.4946 2.9660 352.1620 344.4450 356.1357 5.1174 11.4184 356.7040 337.9707 356.7706 16.6441 318.5194 51.0423 350.8628 12.4471 352.7300 306.1759 93.6501 351.5803 351.0622 29.7106 356.4429 347.0571 43.9034 41.3734 357.7949 335.5309 350.1515 42.8479 263.5124 350.4302 353.5096 346.0510 329.3435 353.8421 358.3119 39.8781 359.7441 6.6034 346.5410 21.6339 353.7164 5.0919 0.3461 14.0314 51.7341 10.9033 5.2343 341.2636 331.2467 
-7.3372 85.1987 69.8021 354.9327 350.5999 179.7292 355.4988 350.2951 2.4887 0.2496 12.4353 2.8385 352.3207 344.4533 356.3197 5.0412 11.6507 356.8700 338.4567 356.8301 16.9407 319.0282 52.7206 348.3422 14.5568 351.5065 305.8446 93.9422 351.4248 352.7650 29.7862 356.5272 347.3396 44.6046 40.1165 355.8074 336.6054 350.9947 41.8990 263.9283 349.9786 355.2236 346.2405 330.5015 354.1314 358.1676 39.4859 359.6518 6.6418 346.0410 21.7003 353.1754 2.9518 0.4919 16.0939 55.3774 10.0926 4.1332 341.6191 330.5048 
-7.3182 85.3703 68.5733 354.8918 350.5964 179.7264 355.4321 350.4265 2.3362 0.1869 12.3264 2.6935 352.4533 344.4538 356.5532 4.9357 11.9114 357.0898 338.6496 356.7947 17.2937 320.5477 54.0621 345.3109 16.0838 350.7799 305.1369 94.7646 351.5495 354.1349 29.7978 356.6029 347.5344 44.9945 38.8649 354.0590 337.8460 351.7629 41.3503 264.3309 349.5277 357.2504 346.4916 331.6170 354.4220 357.9547 38.9827 359.5132 6.7037 345.6314 21.7876 352.6602 0.6481 0.6471 18.4386 58.6845 8.8522 3.7700 341.0078 329.7601 
-7.2918 85.5721 67.3669 354.9206 350.5455 179.8119 355.3807 350.5622 2.1617 0.2089 12.1346 2.5146 352.7386 344.5064 356.7840 4.6155 12.1654 357.2976 338.7400 356.7397 17.5792 322.4897 55.3166 342.0699 17.4141 350.0625 304.2944 95.2592 351.5465 355.3092 29.7880 356.6430 347.5408 45.1774 37.7211 352.4956 339.1163 352.4233 41.0837 264.9096 349.1042 359.4706 346.8594 332.7396 354.6024 357.6058 38.3651 359.3857 6.7169 345.2741 21.8775 352.2002 358.2879 0.7748 21.3392 61.4445 6.7116 3.0293 340.4821 328.9981 
-7.2699 85.8118 66.1663 354.9306 350.4801 179.9434 355.2294 350.6851 1.9725 0.3917 11.9150 2.3151 352.9719 344.6848 356.9649 4.3330 12.2922 357.4561 338.7015 356.6950 17.6340 324.2671 56.1950 339.2788 18.5215 349.3782 303.0865 95.3223 351.6596 356.1290 29.7222 356.6487 347.3919 45.0900 36.5416 351.1786 340.4737 353.0461 41.0074 265.5845 348.6894 1.5873 347.1962 333.9353 354.8540 357.3611 37.5789 359.3091 6.5722 344.9723 21.7410 351.6619 355.9205 0.5555 24.2344 63.7951 4.4141 1.2613 340.4741 328.2728 
-7.2405 86.0543 64.9543 355.0545 350.4482 180.2103 355.1999 350.7324 1.6990 0.5700 11.9377 2.0195 353.3364 344.6486 357.1204 3.8973 12.5058 357.5995 338.6392 356.6903 17.5322 326.1518 56.7273 336.4909 19.3877 348.7279 301.6417 95.1396 351.7839 356.0746 29.5991 356.6202 347.1174 44.9015 35.4562 350.0946 341.7929 353.5825 41.0932 266.0644 348.2525 3.6946 347.6161 335.2277 355.2142 357.2611 36.6858 359.0871 6.3790 344.7338 21.4562 351.1834 353.6882 0.0322 27.0529 65.7339 2.1023 0.4871 339.9583 327.7896 
